<svg width="35" height="35" viewBox="0 0 35 35" fill="none" xmlns="http://www.w3.org/2000/svg">
<circle cx="17.5" cy="17.5" r="17.5" fill="white"/>
<path d="M17.5 5C10.6075 5 5 10.0466 5 16.25C5 20.575 7.77079 24.5266 12.0833 26.3896V29.5833C12.0833 29.7518 12.1849 29.9038 12.3405 29.9683C12.4961 30.0328 12.6754 29.9969 12.7946 29.8779L15.3424 27.3299C16.0559 27.4438 16.7775 27.5008 17.5 27.5C24.3925 27.5 30 22.4534 30 16.25C30 10.0466 24.3925 5 17.5 5ZM17.5 26.6667C16.7535 26.6677 16.0085 26.603 15.2732 26.4734C15.1392 26.4494 15.0018 26.4925 14.9054 26.5887L12.9167 28.5775V26.1125C12.9167 25.943 12.8139 25.7906 12.6571 25.7267C8.51176 24.0417 5.83333 20.3208 5.83333 16.25C5.83333 10.5062 11.0671 5.83333 17.5 5.83333C23.9329 5.83333 29.1667 10.5062 29.1667 16.25C29.1667 21.9938 23.9329 26.6667 17.5 26.6667Z" fill="#EA4D89"/>
<path d="M25.3021 13.3496L19.7046 14.9487L16.5446 11.7887C16.3922 11.6365 16.1489 11.6254 15.9833 11.7633L8.48329 18.0133C8.33416 18.1378 8.29083 18.3488 8.37892 18.5219C8.46681 18.6951 8.66273 18.7846 8.85133 18.7376L15.2887 17.1279L18.4554 20.2946C18.6145 20.4535 18.8711 20.4575 19.035 20.3037L25.7017 14.0537C25.8415 13.9221 25.8732 13.7117 25.7784 13.5447C25.6836 13.3777 25.4869 13.2971 25.3021 13.3496V13.3496ZM18.7604 19.4199L15.7125 16.3721C15.6342 16.2935 15.5276 16.2496 15.4167 16.25C15.3825 16.25 15.3485 16.2543 15.3154 16.2624L10.4167 17.4876L16.2242 12.6471L19.2887 15.7112C19.3958 15.8183 19.5524 15.8588 19.6979 15.817L23.8749 14.625L18.7604 19.4199Z" fill="#EA4D89"/>
</svg>
