<svg width="35" height="35" viewBox="0 0 35 35" fill="none" xmlns="http://www.w3.org/2000/svg">
<circle cx="17.5" cy="17.5" r="17.5" fill="white"/>
<g clip-path="url(#clip0)">
<path d="M30 19.1667C29.9974 18.4098 29.5831 17.7142 28.9187 17.3517C28.9372 17.335 28.9579 17.3226 28.9758 17.3051C29.5709 16.7088 29.7483 15.8126 29.4253 15.0346C29.1024 14.2564 28.3425 13.7496 27.5 13.75H19.1667C18.9366 13.75 18.75 13.5634 18.75 13.3333V7.91667C18.7486 6.53646 17.6302 5.4181 16.25 5.41667H15.4167C14.7264 5.41667 14.1667 5.97636 14.1667 6.66667V10C14.1642 12.0701 12.4868 13.7476 10.4167 13.75H9.16667V12.0833H5V12.9167H8.33333V28.75H5V29.5833H9.16667V26.7004L9.20329 26.7295C10.1646 27.4965 11.3574 27.915 12.5871 27.9167H25.8333C26.3861 27.9173 26.9163 27.698 27.3071 27.3071C27.698 26.9163 27.9173 26.3861 27.9167 25.8333C27.9142 25.3648 27.7527 24.9111 27.4583 24.5467C28.4487 24.3691 29.1689 23.5063 29.1667 22.5C29.165 21.9885 28.9738 21.4958 28.63 21.1172C28.9156 21.0142 29.1758 20.8508 29.3925 20.6384C29.7817 20.2474 30 19.7182 30 19.1667V19.1667ZM28.8033 20.0492C28.5679 20.284 28.2491 20.4163 27.9167 20.4167H22.0833C21.8532 20.4167 21.6667 20.6032 21.6667 20.8333C21.6667 21.0634 21.8532 21.25 22.0833 21.25H27.0833C27.7736 21.25 28.3333 21.8097 28.3333 22.5C28.3333 23.1903 27.7736 23.75 27.0833 23.75H22.0833C21.8532 23.75 21.6667 23.9366 21.6667 24.1667C21.6667 24.3968 21.8532 24.5833 22.0833 24.5833H25.8333C26.5236 24.5833 27.0833 25.143 27.0833 25.8333C27.0833 26.5236 26.5236 27.0833 25.8333 27.0833H12.5871C11.5466 27.0819 10.5375 26.7281 9.72412 26.0791L9.16667 25.6333V14.5833H10.4167C12.9468 14.5803 14.9969 12.5301 15 10V6.66667C15 6.43657 15.1866 6.25001 15.4167 6.25001H16.25C17.1704 6.25001 17.9167 6.99626 17.9167 7.91667V13.3333C17.9167 14.0236 18.4764 14.5833 19.1667 14.5833H27.5C28.1903 14.5833 28.75 15.143 28.75 15.8333C28.75 16.5236 28.1903 17.0833 27.5 17.0833H22.0833C21.8532 17.0833 21.6667 17.2699 21.6667 17.5C21.6667 17.7301 21.8532 17.9167 22.0833 17.9167H27.9167C28.4222 17.9161 28.8782 18.22 29.0723 18.6867C29.2664 19.1534 29.1602 19.6912 28.8033 20.0492V20.0492Z" fill="#04A9F4"/>
</g>
<defs>
<clipPath id="clip0">
<rect width="25" height="25" fill="white" transform="translate(5 5)"/>
</clipPath>
</defs>
</svg>
