<svg width="35" height="35" viewBox="0 0 35 35" fill="none" xmlns="http://www.w3.org/2000/svg">
<circle cx="17.5" cy="17.5" r="17.5" fill="white"/>
<path d="M27.2273 18.3181V18.5676L27.4267 18.7176C28.6861 19.6653 29.5 21.1699 29.5 22.8604C29.5 25.7173 27.175 28.0423 24.3182 28.0423C23.9667 28.0423 23.6818 27.7573 23.6818 27.4059V18.315C23.6818 17.9636 23.9667 17.6786 24.3182 17.6786C24.6734 17.6786 25.0199 17.7146 25.3546 17.7829L25.9545 17.9053V17.293V16.6851C25.9545 12.0228 22.1623 8.23052 17.5 8.23052C12.8377 8.23052 9.04545 12.0228 9.04545 16.6851V17.293V17.9053L9.6454 17.7829C9.98011 17.7146 10.3266 17.6786 10.6818 17.6786C11.0333 17.6786 11.3182 17.9636 11.3182 18.315V27.4059C11.3182 27.7573 11.0333 28.0423 10.6818 28.0423C7.82493 28.0423 5.5 25.7173 5.5 22.8604C5.5 21.17 6.3139 19.6653 7.57334 18.7176L7.77273 18.5676V18.3181V16.685C7.77273 11.3217 12.1368 6.95772 17.5 6.95772C22.8632 6.95772 27.2273 11.3217 27.2273 16.685V18.3181Z" stroke="#EA4D89"/>
</svg>
