<svg width="35" height="35" viewBox="0 0 35 35" fill="none" xmlns="http://www.w3.org/2000/svg">
<circle cx="17.5" cy="17.5" r="17.5" fill="white"/>
<g clip-path="url(#clip0)">
<path d="M28.3889 20.6652C28.3889 21.9596 27.3396 23.009 26.0451 23.009H7.6186L10.7045 19.9231L9.59976 18.8184L5.18025 23.2379C4.87526 23.543 4.87526 24.0374 5.18025 24.3426L9.59976 28.7621L10.7045 27.6574L7.6186 24.5715H26.0451C28.2014 24.5688 29.9489 22.8215 29.9514 20.6652V17.5402H28.3889V20.6652Z" fill="#EA4D89"/>
<path d="M6.51367 14.4153C6.51367 13.121 7.5629 12.0715 8.85742 12.0715H27.2839L24.198 15.1574L25.3028 16.2622L29.7223 11.8427C30.0273 11.5375 30.0273 11.0431 29.7223 10.7379L25.3028 6.31841L24.198 7.42314L27.2839 10.509H8.85742C6.70116 10.5117 4.95365 12.259 4.95117 14.4153V17.5403H6.51367V14.4153Z" fill="#EA4D89"/>
</g>
<defs>
<clipPath id="clip0">
<rect width="25" height="25" fill="white" transform="translate(5 5)"/>
</clipPath>
</defs>
</svg>
