<svg width="35" height="35" viewBox="0 0 35 35" fill="none" xmlns="http://www.w3.org/2000/svg">
<circle cx="17.5" cy="17.5" r="17.5" fill="white"/>
<path d="M7.84795 7H27.1503C27.6197 7 27.9983 7.37939 27.9983 7.84595V27.1523C27.9983 27.6206 27.618 27.9983 27.1503 27.9983C26.9157 27.9983 26.7032 27.9026 26.5491 27.7488L17.4769 19.9524L8.40126 27.7915C8.04837 28.0957 7.51391 28.0581 7.20728 27.7061C7.06852 27.5471 7.00171 27.3489 7.00171 27.1541H7V7.84595C7 7.37939 7.38029 7 7.84795 7ZM26.3024 8.6936H8.69761V25.3049L16.915 18.2058C17.2268 17.929 17.7047 17.9187 18.0302 18.199L26.3041 25.3101V8.6936H26.3024Z" fill="#04A9F4"/>
</svg>
