<svg width="35" height="35" viewBox="0 0 35 35" fill="none" xmlns="http://www.w3.org/2000/svg">
<circle cx="17.5" cy="17.5" r="17.5" fill="white"/>
<path d="M26.95 7.7H8.05C7.47014 7.7 7 8.17014 7 8.75V22.05C7 22.6299 7.47014 23.1 8.05 23.1H16.1V25.2H11.2C11.0067 25.2 10.85 25.3567 10.85 25.55V26.95C10.85 27.1433 11.0067 27.3 11.2 27.3H23.8C23.9933 27.3 24.15 27.1433 24.15 26.95V25.55C24.15 25.3567 23.9933 25.2 23.8 25.2H18.9V23.1H26.95C27.5299 23.1 28 22.6299 28 22.05V8.75C28 8.17014 27.5299 7.7 26.95 7.7ZM23.45 26.6H11.55V25.9H23.45V26.6ZM18.2 25.2H16.8V23.1H18.2V25.2ZM27.3 22.05C27.3 22.2433 27.1433 22.4 26.95 22.4H8.05C7.85671 22.4 7.7 22.2433 7.7 22.05V8.75C7.7 8.55671 7.85671 8.4 8.05 8.4H26.95C27.1433 8.4 27.3 8.55671 27.3 8.75V22.05Z" fill="#EA4D89"/>
<path d="M22.2064 15.0868L15.2064 11.5868C15.0978 11.5326 14.969 11.5384 14.8659 11.6021C14.7627 11.666 14.7 11.7787 14.7 11.9V18.9C14.6993 19.0217 14.7619 19.1348 14.8651 19.1991C14.9685 19.2633 15.0977 19.2693 15.2064 19.215L22.2064 15.715C22.3253 15.6558 22.4003 15.5345 22.4003 15.4017C22.4003 15.2691 22.3253 15.1478 22.2064 15.0885V15.0868ZM15.4 18.3337V12.4664L21.2674 15.4L15.4 18.3337Z" fill="#EA4D89"/>
</svg>
