<svg width="35" height="35" viewBox="0 0 35 35" fill="none" xmlns="http://www.w3.org/2000/svg">
<path d="M23.6521 17.9243C22.1251 17.9189 20.6644 18.5478 19.619 19.6609C18.1154 18.4613 16.2473 17.8111 14.3238 17.8184H14.3086C11.9968 17.8233 9.85153 18.7219 8.26155 20.3573C6.64616 22.0081 5.76286 24.2643 5.76775 26.7125C5.7687 26.8465 5.82126 26.9747 5.91423 27.0708C6.0091 27.1658 6.13821 27.2187 6.27254 27.2173L19.5231 27.192C19.5534 27.2274 19.5835 27.2577 19.614 27.2931C21.3536 29.1342 24.1189 29.5648 26.3361 28.34C28.5534 27.1152 29.6612 24.5454 29.029 22.0925C28.3968 19.6396 26.1852 17.9251 23.6521 17.9243V17.9243ZM6.79248 26.2027C6.89856 24.2189 7.66585 22.4068 8.98322 21.0591C10.3816 19.6205 12.2745 18.828 14.3086 18.828H14.3238C16.0216 18.8213 17.6707 19.3946 18.9981 20.4533C17.8797 22.1806 17.806 24.3843 18.8063 26.1826L6.79248 26.2027ZM23.6521 28.0199C21.143 28.0199 19.1092 25.9859 19.1092 23.4768C19.1092 20.968 21.143 18.9339 23.6521 18.9339C26.1613 18.9339 28.1951 20.968 28.1951 23.4768C28.1951 25.9859 26.1613 28.0199 23.6521 28.0199V28.0199Z" fill="#0D6FFF"/>
<path d="M14.3137 16.617C17.2604 16.617 19.6492 14.2282 19.6492 11.2815C19.6492 8.3347 17.2604 5.94586 14.3137 5.94586C11.367 5.94586 8.97821 8.3347 8.97821 11.2815C8.98105 14.2269 11.3682 16.6142 14.3137 16.617V16.617ZM14.3137 6.95544C16.703 6.95544 18.6396 8.89237 18.6396 11.2815C18.6396 13.6705 16.703 15.6074 14.3137 15.6074C11.9246 15.6074 9.98779 13.6705 9.98779 11.2815C9.99063 8.89347 11.9257 6.95844 14.3137 6.95544V6.95544Z" fill="#0D6FFF"/>
<path d="M25.6965 22.9721H24.1569V21.4326C24.1569 21.1537 23.9309 20.9278 23.6521 20.9278C23.3733 20.9278 23.1473 21.1537 23.1473 21.4326V22.9721H21.6077C21.3289 22.9721 21.1029 23.1981 21.1029 23.4768C21.1029 23.7558 21.3289 23.9816 21.6077 23.9816H23.1473V25.5213C23.1473 25.8 23.3733 26.026 23.6521 26.026C23.9309 26.026 24.1569 25.8 24.1569 25.5213V23.9816H25.6965C25.9753 23.9816 26.2011 23.7558 26.2011 23.4768C26.2011 23.1981 25.9753 22.9721 25.6965 22.9721V22.9721Z" fill="#0D6FFF"/>
</svg>
