<svg width="35" height="35" viewBox="0 0 35 35" fill="none" xmlns="http://www.w3.org/2000/svg">
<circle cx="17.5" cy="17.5" r="17.5" fill="white"/>
<g clip-path="url(#clip0)">
<path d="M17.5 24.8079C11.0821 24.8079 5.36337 18.1369 5.12266 17.8525C4.9592 17.6587 4.9592 17.3745 5.12266 17.1796C5.36337 16.8952 11.0821 10.2243 17.5 10.2243C24.9792 10.2243 29.7105 16.9337 29.9075 17.2192C30.0418 17.413 30.0283 17.6722 29.8772 17.8515C29.6367 18.1369 23.9178 24.8079 17.5 24.8079ZM6.22055 17.516C7.46339 18.8598 12.3551 23.7661 17.5 23.7661C22.6887 23.7661 27.6084 18.789 28.8064 17.488C27.7688 16.165 23.5199 11.2659 17.5 11.2659C12.3478 11.2659 7.4613 16.1713 6.22055 17.516Z" fill="#128BFC"/>
<path d="M17.5 21.6829C15.202 21.6829 13.3332 19.814 13.3332 17.516C13.3332 15.2182 15.202 13.3493 17.5 13.3493C19.7978 13.3493 21.6667 15.2182 21.6667 17.516C21.6667 19.814 19.7978 21.6829 17.5 21.6829ZM17.5 14.391C15.7771 14.391 14.375 15.7931 14.375 17.516C14.375 19.239 15.7771 20.6411 17.5 20.6411C19.223 20.6411 20.6251 19.239 20.6251 17.516C20.6251 15.7931 19.223 14.391 17.5 14.391V14.391Z" fill="#128BFC"/>
</g>
<defs>
<clipPath id="clip0">
<rect width="25" height="25" fill="white" transform="translate(5 5)"/>
</clipPath>
</defs>
</svg>
