<svg height="512pt" viewBox="0 -192 512.01904 512" width="512pt" xmlns="http://www.w3.org/2000/svg"><path d="m501.335938 128.011719c-2.582032 0-5.183594-.9375-7.230469-2.816407-59.457031-54.761718-139.5625-82.515624-238.101563-82.515624-98.539062 0-178.644531 27.753906-238.101562 82.515624-4.308594 3.988282-11.070313 3.734376-15.082032-.617187-3.988281-4.332031-3.710937-11.09375.617188-15.082031 63.53125-58.496094 148.503906-88.152344 252.566406-88.152344s189.035156 29.65625 252.566406 88.152344c4.328126 3.988281 4.605469 10.730468.617188 15.082031-2.113281 2.28125-4.96875 3.433594-7.851562 3.433594zm0 0"/><path d="m501.335938 128.011719h-117.332032c-5.886718 0-10.667968-4.777344-10.667968-10.667969 0-5.886719 4.78125-10.664062 10.667968-10.664062h101.589844l-36.820312-92.035157c-2.199219-5.460937.46875-11.667969 5.949218-13.863281 5.398438-2.199219 11.671875.46875 13.867188 5.949219l42.667968 106.667969c1.320313 3.285156.894532 7.019531-1.066406 9.941406-2.007812 2.902344-5.3125 4.671875-8.855468 4.671875zm0 0"/></svg>