<svg version="1.1" id="final_svg" xmlns:x="&amp;ns_extend;" xmlns:i="&amp;ns_ai;" xmlns:graph="&amp;ns_graphs;" xmlns="http://www.w3.org/2000/svg" xmlns:xlink="http://www.w3.org/1999/xlink" x="0px" y="0px" viewBox="359.77471923828125 305.9500427246094 470.87445068359375 137.81106567382812" style="enable-background:new 0 0 283.558 315.015;" xml:space="preserve">
      <style type="text/css">.st0{fill:#F41C1C;}	.st1{opacity:0.3;enable-background:new    ;}	.st2{opacity:0.3;}	.st3{fill:#FF7C3B;}</style>
    <metadata>
              <sfw>
                      <slices></slices>
            <slicesourcebounds bottomleftorigin="true" height="315.015" width="283.558" x="0" y="0"></slicesourcebounds>
                  </sfw>
          </metadata>
    <g id="color_index_1" fill="#f41c1c" transform="translate(359.77471896278837, 305.950075518606) scale(0.43747510106753035)" opacity="1">
              <path d="M263.072,122.033L61.292,5.535C34.051-10.192,0,9.467,0,40.923v232.995c0,31.54,34.143,51.252,61.457,35.482		l201.615-116.402C290.387,177.228,290.387,137.803,263.072,122.033z"></path>
          </g>
    <g transform="translate(359.77471896278837, 305.950075518606) scale(0.43747510106753035)" opacity="1">
              <path class="st1" d="M262.151,193.529c-2.831-10.697-8.76-21.356-18.57-31.747c-36.398-38.548-100.11-29.892-136.491,3.936		c-19.043,17.705-26.087,64.634-46.736,109.008c-10.503,22.569,24.79,20.998,24.79,20.998L262.151,193.529z"></path>
        <g class="st2">
                      <path d="M13.579,10.53C33.857,5.588,44,27.324,47.055,44.77c3.213,18.35,2.755,38.249,12.715,53.993			c6.968,11.016,19.203,18.528,32.18,19.756c19.861,1.879,38.094-9.944,57.213-15.634c27.79-8.271,74.147-1.364,104.059,13.461			L90.737,22.536c0,0-33.904-19.5-46.575-20.167C28.866,1.564,13.579,10.53,13.579,10.53z"></path>
                  </g>
          </g>
    <g id="color_index_0" fill="#fc7430" transform="translate(359.77471896278837, 305.950075518606) scale(0.43747510106753035)" opacity="1">
              <path d="M61.324,5.554C44.897-3.93,26.006-0.54,13.579,10.53C46.22-3.154,59.526,31.276,66.217,52.65		c12.822,40.956,35.722,45.737,80.074,39.185c26.43-3.904,68.178,3.604,100.215,20.634L61.324,5.554z"></path>
        <path d="M128.495,152.389c-30.554,12.731-51.202,47.428-67.738,102.034C48.352,295.388,9.658,313.36,0.015,274.509		c0.317,31.213,34.182,50.63,61.309,34.968l159.709-92.208c0.221-14.082-1.325-30.84-10.821-44.152		C191.959,147.529,158.973,139.69,128.495,152.389z"></path>
          </g>
    <g fill="#272727" id="text_group" transform="translate(503.732921671295, 308.52728500000006)" opacity="1.0">
              <path d="M3.89 86.07L3.89 32.03Q3.89 29.50 4.24 27.89Q4.58 26.29 5.55 25.26Q6.52 24.24 8.23 23.85Q9.93 23.46 12.56 23.46L12.56 23.46L33.39 23.46Q42.06 23.46 50.04 29.69L50.04 29.69Q54.62 33.20 56.86 38.41Q59.10 43.62 59.10 49.36L59.10 49.36Q59.10 55.79 56.61 60.85Q54.13 65.91 50.04 68.93L50.04 68.93Q42.06 75.16 33.30 75.16L33.30 75.16L21.13 75.16L21.13 86.16Q21.13 88.60 20.79 90.25Q20.45 91.91 19.47 92.93Q18.50 93.95 16.79 94.34Q15.09 94.73 12.46 94.73L12.46 94.73Q9.74 94.73 8.08 94.24Q6.43 93.76 5.50 92.74Q4.58 91.71 4.24 90.06Q3.89 88.40 3.89 86.07L3.89 86.07ZM21.13 40.70L21.13 57.93L33.39 57.93Q34.85 57.93 36.36 57.39Q37.87 56.86 39.14 55.79Q40.40 54.72 41.18 53.11Q41.96 51.50 41.96 49.36L41.96 49.36Q41.96 47.22 41.18 45.61Q40.40 44.01 39.14 42.89Q37.87 41.77 36.32 41.23Q34.76 40.70 33.30 40.70L33.30 40.70L21.13 40.70ZM65.43 86.07L65.43 32.03Q65.43 29.50 65.77 27.89Q66.11 26.29 67.08 25.26Q68.05 24.24 69.76 23.85Q71.46 23.46 74.09 23.46L74.09 23.46L95.12 23.46Q100.48 23.46 105.15 25.51Q109.82 27.55 113.28 31.06Q116.73 34.56 118.73 39.28Q120.73 44.01 120.73 49.36L120.73 49.36Q120.73 60.27 113.42 67.47L113.42 67.47Q114.50 70.00 116.15 73.85Q117.81 77.69 120.04 82.76L120.04 82.76Q121.51 86.26 121.51 87.82L121.51 87.82Q121.51 89.47 120.29 90.84Q119.07 92.20 117.32 93.22Q115.57 94.24 113.67 94.78Q111.77 95.32 110.31 95.32L110.31 95.32Q108.36 95.32 107.29 94.49Q106.22 93.66 105.54 92.59L105.54 92.59Q104.47 90.54 97.94 74.97L97.94 74.97L94.93 75.16L82.66 75.16L82.66 86.16Q82.66 88.60 82.32 90.25Q81.98 91.91 81.00 92.93Q80.03 93.95 78.33 94.34Q76.62 94.73 73.99 94.73L73.99 94.73Q71.27 94.73 69.61 94.24Q67.96 93.76 67.03 92.74Q66.11 91.71 65.77 90.06Q65.43 88.40 65.43 86.07L65.43 86.07ZM82.66 40.70L82.66 57.93L95.12 57.93Q96.58 57.93 98.04 57.39Q99.50 56.86 100.77 55.79Q102.03 54.72 102.81 53.11Q103.59 51.50 103.59 49.36L103.59 49.36Q103.59 47.22 102.81 45.61Q102.03 44.01 100.77 42.89Q99.50 41.77 97.94 41.23Q96.39 40.70 94.93 40.70L94.93 40.70L82.66 40.70Z"></path>
          </g>
    <g fill="#2b2d2e" id="tagline_group" transform="translate(631.1767868195725, 320.5321850000001)" opacity="1.0">
              <path d="M2.35 38.19C2.35 40.82 4.31 42.06 6.33 42.06C8.40 42.06 10.47 40.71 10.47 38.19L10.47 37.13C10.47 34.61 8.46 33.32 6.44 33.32C4.37 33.32 2.35 34.61 2.35 37.13ZM16.52 10.25L26.32 10.25L26.32 38.53C26.32 40.99 28.17 42.22 29.96 42.22C31.92 42.22 33.71 40.99 33.71 38.53L33.71 10.25L43.01 10.25C47.99 10.25 47.99 3.08 43.01 3.08L16.52 3.08C11.65 3.08 11.65 10.25 16.52 10.25ZM88.54 22.40C88.54 9.18 78.29 2.30 68.49 1.85C58.13 1.85 47.38 8.62 47.38 22.40C47.38 35.67 57.46 42.56 67.54 42.56L68.49 42.56C78.29 42.56 88.54 35.67 88.54 22.40ZM81.20 22.40C81.20 31.19 74.31 35.67 67.87 35.67C61.60 35.67 54.77 31.19 54.77 22.40C54.77 13.61 61.60 9.13 67.87 9.13C74.31 9.13 81.20 13.61 81.20 22.40ZM134.01 22.40C134.01 9.18 123.76 2.30 113.96 1.85C103.60 1.85 92.85 8.62 92.85 22.40C92.85 35.67 102.93 42.56 113.01 42.56L113.96 42.56C123.76 42.56 134.01 35.67 134.01 22.40ZM126.67 22.40C126.67 31.19 119.78 35.67 113.34 35.67C107.07 35.67 100.24 31.19 100.24 22.40C100.24 13.61 107.07 9.13 113.34 9.13C119.78 9.13 126.67 13.61 126.67 22.40ZM139.72 38.58C139.72 40.60 141.29 42 143.25 42L161.78 42C167.38 42 167.27 34.66 161.78 34.66L146.55 34.66L146.55 6.61C146.55 4.76 145.04 3.19 143.25 3.19C141.29 3.19 139.72 4.76 139.72 6.61ZM192.19 30.86C191.74 34.83 188.55 36.23 184.91 36.23C181.33 36.23 177.24 34.83 174.94 33.32C174.16 32.70 173.38 32.37 172.65 32.37C171.75 32.37 170.86 32.82 169.96 33.71C168.90 35.22 168.95 37.69 170.74 39.20C173.82 41.72 178.81 43.18 183.79 43.18C191.46 43.18 199.30 39.65 199.47 31.02C199.75 16.18 175.56 21.34 177.02 12.21C177.63 9.24 180.49 8.06 183.68 8.06C186.59 8.06 189.78 8.96 191.74 10.25C192.36 10.70 193.03 10.92 193.70 10.92C196.39 10.92 198.41 7.22 195.33 4.76C192.47 2.58 188.50 1.46 184.46 1.46C177.52 1.46 170.80 4.70 169.90 11.65C168.11 27.50 191.52 22.57 192.19 30.86Z"></path>
          </g>
  </svg>